<svg fill="none" xmlns="http://www.w3.org/2000/svg">
  <symbol id="main-key" viewBox="0 0 97 44">
    <path d="M21.875 43.875C17.9605 43.8742 14.1179 42.823 10.7481 40.831C7.37831 38.8391 4.60477 35.9793 2.71682 32.5502C0.828869 29.121 -0.104314 25.2481 0.0146173 21.3354C0.133549 17.4227 1.30024 13.6136 3.39298 10.3054C5.48571 6.99726 8.42782 4.31128 11.9124 2.52766C15.3969 0.744052 19.2963 -0.0718378 23.2036 0.165109C27.111 0.402056 30.8831 1.68316 34.1266 3.87477C37.3701 6.06638 39.9661 9.0882 41.6438 12.625H87.5L96.875 22L87.5 31.375L81.25 25.125L75 31.375L68.75 25.125L62.5 31.375L56.25 25.125L50 31.375H41.6438C39.8693 35.1158 37.0697 38.2762 33.5703 40.489C30.0709 42.7017 26.0153 43.8759 21.875 43.875ZM15.625 28.25C17.2826 28.25 18.8723 27.5915 20.0444 26.4194C21.2165 25.2473 21.875 23.6576 21.875 22C21.875 20.3424 21.2165 18.7527 20.0444 17.5806C18.8723 16.4085 17.2826 15.75 15.625 15.75C13.9674 15.75 12.3777 16.4085 11.2056 17.5806C10.0335 18.7527 9.375 20.3424 9.375 22C9.375 23.6576 10.0335 25.2473 11.2056 26.4194C12.3777 27.5915 13.9674 28.25 15.625 28.25Z" fill="white"/>
  </symbol>
</svg>
